<?xml version="1.0" standalone="no"?>

<svg version="1.0" xmlns="http://www.w3.org/2000/svg"
 width="60" height="60" viewBox="0 0 1080.000000 1080.000000"
 preserveAspectRatio="xMidYMid meet">

<g transform="translate(0.000000,1080.000000) scale(0.100000,-0.100000)"
fill="#fff" stroke="none">
<path d="M5363 9991 c-5 -21 -47 -36 -65 -25 -7 5 -8 2 -3 -6 6 -10 3 -12 -13
-8 -12 4 -20 3 -17 -1 2 -5 -38 -21 -90 -37 -52 -16 -95 -32 -95 -36 0 -4 -7
-5 -15 -2 -8 4 -15 2 -15 -4 0 -10 -93 -38 -117 -36 -7 1 -11 -2 -8 -6 7 -11
-51 -23 -66 -14 -8 5 -9 3 -4 -6 6 -10 3 -12 -13 -8 -12 4 -20 3 -17 -2 3 -4
-15 -13 -40 -19 -25 -6 -45 -15 -45 -20 0 -12 -86 -34 -101 -26 -8 6 -10 4 -4
-5 6 -10 3 -12 -13 -8 -12 4 -20 3 -17 -1 7 -12 -71 -35 -85 -26 -9 6 -11 4
-5 -5 6 -10 3 -12 -13 -8 -12 4 -20 2 -17 -2 3 -5 -10 -12 -30 -16 -19 -3 -35
-10 -35 -14 0 -12 -108 -42 -121 -34 -8 5 -9 3 -4 -6 6 -10 3 -12 -13 -8 -12
4 -20 2 -17 -2 7 -11 -51 -23 -66 -14 -7 4 -9 3 -5 -4 3 -6 -9 -15 -31 -22
-21 -7 -44 -17 -50 -23 -7 -5 -13 -6 -13 -2 0 4 -7 2 -15 -5 -8 -7 -22 -10
-30 -6 -9 3 -14 2 -11 -3 7 -11 -41 -24 -56 -15 -7 5 -8 2 -3 -6 6 -10 3 -12
-13 -8 -14 4 -20 2 -15 -5 4 -6 -2 -8 -15 -5 -12 4 -20 2 -17 -2 7 -11 -51
-23 -66 -14 -8 4 -9 3 -5 -4 4 -7 1 -12 -8 -12 -9 0 -16 -5 -16 -11 0 -5 -4
-8 -9 -4 -5 3 -28 -4 -50 -16 -23 -12 -48 -18 -57 -15 -8 3 -13 2 -9 -3 7 -12
-51 -25 -66 -15 -7 4 -9 3 -5 -4 8 -13 -29 -26 -45 -16 -7 4 -9 3 -6 -3 3 -5
-16 -15 -43 -22 -28 -7 -50 -17 -50 -23 0 -5 -4 -7 -9 -4 -5 3 -23 -1 -40 -10
-17 -8 -36 -12 -42 -8 -8 5 -9 3 -4 -6 6 -10 3 -12 -13 -8 -12 4 -20 3 -17 -2
6 -10 -54 -22 -68 -13 -6 4 -7 1 -2 -7 6 -10 3 -12 -13 -8 -12 4 -20 3 -17 -2
2 -4 -16 -13 -40 -20 -25 -7 -45 -17 -45 -22 0 -5 -5 -6 -11 -2 -6 3 -15 1
-19 -5 -4 -7 -23 -13 -42 -14 -20 -1 -33 -6 -30 -11 3 -5 -5 -7 -16 -4 -12 4
-20 2 -17 -3 8 -11 -40 -23 -56 -13 -8 5 -9 3 -4 -6 6 -10 3 -12 -13 -8 -14 4
-20 2 -15 -5 4 -6 -2 -8 -15 -5 -12 4 -20 2 -17 -2 3 -5 -10 -12 -30 -16 -19
-3 -35 -10 -35 -16 0 -5 -5 -6 -10 -3 -5 3 -10 2 -10 -3 0 -13 -88 -35 -102
-26 -7 5 -8 2 -3 -6 6 -10 3 -12 -13 -8 -12 4 -20 3 -17 -2 6 -10 -43 -23 -57
-14 -7 5 -8 2 -3 -6 6 -10 3 -12 -13 -8 -12 4 -20 2 -17 -2 3 -5 -10 -12 -30
-16 -19 -3 -35 -10 -35 -15 0 -5 -7 -6 -15 -3 -8 4 -15 2 -15 -3 0 -13 -78
-36 -92 -27 -7 5 -8 3 -3 -6 6 -10 3 -12 -13 -8 -14 4 -20 2 -15 -5 4 -6 -2
-8 -15 -5 -12 4 -20 2 -17 -2 7 -11 -51 -23 -66 -14 -8 4 -9 3 -5 -4 4 -7 -10
-16 -36 -24 -24 -6 -45 -15 -48 -19 -10 -12 -141 -49 -152 -43 -6 4 -8 3 -5
-3 8 -13 -79 -37 -95 -27 -7 4 -8 3 -4 -4 4 -7 1 -12 -8 -12 -9 0 -16 -5 -16
-11 0 -5 -4 -7 -10 -4 -5 3 -21 -2 -35 -11 -14 -9 -32 -14 -40 -10 -9 3 -14 2
-10 -3 7 -12 -51 -25 -66 -15 -8 5 -9 3 -4 -6 6 -10 3 -12 -13 -8 -12 4 -20 3
-17 -2 3 -4 -22 -16 -55 -26 -33 -10 -60 -22 -60 -26 0 -5 -5 -6 -11 -2 -6 3
-15 1 -19 -5 -4 -7 -23 -13 -42 -14 -20 -1 -33 -6 -30 -11 3 -5 -2 -6 -12 -3
-9 4 -15 3 -11 -2 7 -12 -51 -25 -66 -15 -8 5 -9 3 -4 -6 6 -10 3 -12 -13 -8
-12 4 -20 3 -17 -2 2 -4 -16 -13 -40 -20 -25 -7 -45 -16 -45 -21 0 -5 -7 -6
-15 -3 -8 4 -15 2 -15 -4 0 -12 -88 -35 -102 -26 -6 4 -8 3 -5 -3 8 -13 -67
-38 -83 -28 -9 6 -11 4 -5 -5 6 -10 3 -12 -13 -8 -12 4 -20 2 -16 -3 3 -5 -2
-9 -11 -9 -12 0 -15 -7 -11 -32 13 -82 28 -259 23 -278 -3 -12 -1 -18 5 -14 6
4 9 -14 6 -49 -1 -30 1 -53 5 -50 5 3 7 -19 5 -50 -1 -30 0 -53 3 -51 3 2 14
-81 24 -184 10 -103 22 -189 25 -192 11 -8 33 -277 25 -291 -6 -8 -4 -10 4 -4
10 6 12 -5 9 -48 -1 -30 -1 -54 3 -52 3 2 18 -126 34 -286 16 -159 32 -289 35
-289 4 0 5 -13 2 -29 -2 -16 1 -32 7 -35 6 -4 11 -27 11 -52 0 -25 7 -106 16
-182 9 -75 14 -148 12 -164 -3 -15 0 -24 5 -21 5 3 8 -18 5 -50 -1 -30 1 -53
5 -50 5 3 7 -19 5 -50 -1 -30 0 -53 3 -51 3 2 12 -62 19 -141 7 -80 16 -145
20 -145 3 0 4 -16 2 -36 -3 -20 0 -46 6 -57 13 -27 36 -261 28 -283 -4 -9 -2
-13 5 -8 8 4 10 -11 7 -49 -1 -30 1 -53 5 -50 5 3 7 -19 5 -50 -1 -30 1 -53 5
-50 5 3 7 -19 5 -50 -1 -30 0 -53 3 -51 3 2 12 -57 19 -131 7 -74 16 -135 19
-135 3 0 4 -25 3 -55 -2 -30 0 -55 5 -55 12 0 38 -274 28 -290 -6 -9 -4 -11 4
-5 10 6 12 -5 9 -48 -1 -30 1 -53 5 -50 5 3 7 -19 5 -50 -1 -30 0 -53 3 -51 3
2 14 -82 24 -186 10 -105 21 -190 24 -190 3 0 4 -21 2 -46 -2 -26 1 -49 6 -53
11 -7 67 -543 60 -571 -3 -12 -1 -18 5 -14 6 4 9 -14 6 -49 -1 -30 0 -53 4
-51 3 2 9 -39 13 -91 4 -52 10 -95 14 -95 3 0 5 -20 3 -45 -3 -37 0 -49 17
-64 11 -10 17 -21 14 -25 -4 -4 1 -4 11 0 13 5 17 4 12 -4 -5 -8 -1 -10 10 -5
13 5 15 3 9 -8 -4 -8 -4 -11 0 -6 5 4 19 0 32 -8 13 -9 23 -13 23 -10 0 3 6 0
14 -7 8 -7 12 -16 9 -20 -2 -4 2 -5 10 -2 8 3 18 0 23 -7 5 -8 3 -10 -6 -4 -8
5 -11 4 -6 -3 4 -6 13 -9 20 -6 14 5 76 -21 76 -32 0 -3 -5 -2 -12 2 -7 4 -8
3 -4 -4 4 -6 13 -9 20 -6 7 3 20 -1 27 -8 8 -7 27 -19 42 -26 15 -6 25 -17 22
-22 -4 -6 1 -7 11 -3 12 4 15 3 10 -5 -5 -8 -1 -10 10 -5 13 5 15 3 9 -7 -5
-8 -4 -11 3 -6 13 8 63 -14 56 -25 -3 -5 3 -6 12 -2 12 4 15 3 10 -5 -5 -8 -2
-10 8 -6 9 3 16 1 16 -6 0 -6 5 -8 10 -5 6 3 13 0 16 -8 3 -9 17 -18 30 -21
14 -4 22 -11 19 -16 -4 -6 1 -7 11 -3 11 4 15 2 11 -4 -4 -6 1 -10 11 -9 9 0
16 -4 15 -11 -2 -7 3 -10 11 -7 15 6 72 -20 78 -34 1 -5 25 -19 51 -30 27 -12
46 -26 42 -32 -4 -6 1 -7 11 -3 12 4 15 3 10 -5 -5 -8 -1 -10 10 -5 13 5 15 3
9 -7 -5 -8 -4 -11 3 -6 12 7 62 -13 62 -26 0 -5 3 -7 8 -5 10 7 32 -19 24 -29
-4 -4 -2 -4 5 0 14 8 84 -24 77 -36 -3 -4 1 -5 9 -2 8 3 18 0 23 -7 5 -8 3
-10 -6 -4 -9 5 -11 4 -6 -4 4 -6 11 -9 16 -6 5 3 20 0 32 -7 13 -7 25 -12 28
-11 3 0 14 -8 25 -20 11 -11 14 -16 6 -12 -9 5 -12 4 -7 -3 4 -6 14 -8 23 -5
11 4 14 3 9 -5 -5 -8 -2 -10 8 -6 17 7 77 -26 70 -38 -3 -4 1 -5 9 -2 8 3 21
-1 28 -8 8 -7 26 -19 41 -27 15 -8 25 -18 22 -22 -3 -5 3 -6 12 -2 12 4 15 3
10 -5 -5 -8 -1 -10 10 -5 13 5 15 3 9 -7 -5 -8 -4 -11 3 -6 12 7 112 -39 112
-52 0 -4 16 -14 35 -21 19 -7 33 -16 30 -21 -3 -4 3 -7 13 -6 9 0 16 -4 15
-11 -2 -8 4 -10 14 -6 10 4 14 2 10 -4 -5 -7 0 -9 12 -6 11 3 27 -3 39 -15 11
-11 23 -18 26 -14 3 3 6 1 6 -5 0 -6 18 -18 41 -27 22 -9 37 -21 34 -26 -4 -6
1 -7 11 -3 12 4 15 3 10 -5 -5 -8 -1 -10 10 -5 13 5 15 3 9 -7 -5 -8 -4 -11 3
-6 11 7 51 -11 64 -29 4 -5 8 -6 8 -2 0 4 6 2 14 -5 8 -7 12 -16 9 -20 -2 -4
2 -5 10 -2 8 3 18 0 23 -7 5 -8 3 -10 -6 -4 -9 5 -11 4 -6 -4 4 -6 12 -9 17
-6 13 9 50 -5 44 -16 -3 -5 0 -6 8 -3 8 3 18 0 23 -7 5 -8 3 -10 -6 -4 -8 5
-11 4 -6 -3 4 -6 13 -9 20 -6 7 3 20 -1 27 -8 8 -7 27 -19 42 -26 15 -6 25
-17 22 -22 -4 -6 1 -7 11 -3 12 4 15 3 10 -5 -5 -8 -1 -10 10 -5 13 5 15 3 9
-7 -6 -9 -4 -11 4 -5 15 9 63 -14 55 -26 -3 -5 1 -6 9 -3 8 3 22 -2 30 -11 9
-9 18 -15 19 -14 9 5 67 -39 60 -46 -4 -5 -1 -5 5 -1 15 8 56 -17 46 -28 -4
-4 0 -4 9 -1 17 7 78 -20 78 -34 0 -5 20 -16 45 -25 25 -10 48 -22 51 -28 5
-7 2 -8 -6 -3 -8 5 -11 4 -6 -3 4 -6 14 -8 23 -5 12 5 14 3 8 -7 -5 -9 -4 -11
3 -6 14 8 82 -22 82 -36 0 -5 3 -7 8 -5 10 7 32 -19 24 -29 -4 -4 -1 -4 6 1
16 9 64 -14 56 -26 -3 -5 3 -6 12 -2 12 4 15 3 10 -5 -5 -8 -1 -10 10 -5 12 4
15 3 10 -5 -4 -7 -2 -10 7 -6 8 3 20 -2 27 -10 7 -9 16 -13 21 -10 5 3 9 1 9
-5 0 -5 9 -13 20 -16 11 -4 18 -11 15 -16 -3 -5 0 -6 8 -3 8 3 18 0 23 -7 5
-8 3 -10 -6 -4 -9 5 -11 4 -6 -4 4 -6 12 -9 17 -6 13 9 50 -5 44 -16 -3 -5 0
-6 8 -3 8 3 18 0 23 -7 5 -8 3 -10 -6 -4 -8 5 -11 4 -6 -3 4 -6 13 -9 20 -6 7
3 20 -2 29 -10 9 -9 20 -16 24 -16 5 0 18 -7 29 -16 10 -8 13 -12 5 -8 -9 4
-12 3 -7 -4 4 -6 14 -8 23 -5 11 4 14 3 9 -5 -5 -8 -1 -10 10 -5 13 5 15 3 9
-7 -6 -9 -4 -11 4 -5 15 9 63 -14 55 -26 -3 -5 1 -6 9 -3 8 3 21 -1 28 -8 8
-7 31 -22 51 -32 20 -11 35 -23 32 -28 -3 -4 3 -5 12 -1 13 5 15 3 9 -7 -5 -8
-4 -11 2 -7 12 7 113 -39 113 -52 0 -4 18 -15 41 -24 23 -9 38 -21 34 -26 -4
-7 1 -8 11 -4 12 4 15 3 10 -5 -5 -8 -1 -10 10 -5 13 5 15 3 9 -7 -5 -8 -4
-11 3 -6 18 11 62 -12 62 -34 0 -11 7 -20 16 -20 8 0 13 -3 11 -7 -3 -5 8 -8
23 -8 15 0 26 3 23 8 -2 4 5 7 16 7 14 0 21 6 21 20 0 22 34 45 52 34 7 -5 8
-3 3 6 -6 10 -4 12 9 7 9 -4 15 -3 12 2 -8 12 61 44 77 35 6 -4 9 -4 5 0 -16
19 70 74 93 60 5 -3 8 0 7 8 -2 7 5 12 14 12 10 -1 15 3 11 9 -4 6 0 8 11 4
10 -4 15 -3 11 3 -3 5 6 12 20 16 14 3 25 10 25 15 0 5 7 9 15 9 8 0 15 4 15
8 0 13 90 53 102 46 7 -5 8 -2 3 6 -6 10 -4 12 9 7 11 -5 15 -3 10 5 -5 8 -2
9 10 5 10 -4 15 -3 11 3 -3 5 7 16 22 22 15 7 34 19 42 26 7 7 20 11 27 8 7
-3 16 0 20 6 4 7 3 8 -4 4 -7 -4 -12 -4 -12 -1 0 10 70 36 80 30 5 -3 12 0 16
6 5 8 3 9 -6 4 -9 -6 -11 -4 -6 4 5 7 15 10 24 6 9 -3 13 -3 9 1 -10 10 82 66
95 58 7 -5 8 -2 3 6 -6 10 -4 12 9 7 9 -4 15 -3 12 2 -7 11 43 33 56 25 7 -5
8 -2 3 6 -6 10 -4 12 9 7 11 -5 15 -3 10 5 -5 8 -2 9 10 5 9 -4 15 -3 13 1 -3
4 1 13 9 20 8 7 14 10 14 7 0 -4 7 1 16 10 9 9 23 14 31 11 9 -4 11 -2 7 6 -5
8 -2 9 10 5 11 -5 15 -3 10 5 -5 8 -2 9 9 5 9 -3 19 -1 23 5 5 7 2 8 -6 3 -8
-5 -11 -4 -7 2 4 6 27 18 52 27 25 10 45 22 45 27 0 14 69 41 82 33 7 -5 8 -2
3 6 -6 10 -4 12 8 7 9 -3 19 -1 23 5 5 7 2 8 -6 3 -9 -6 -11 -4 -6 4 5 7 15
10 23 7 8 -3 11 -1 8 4 -3 5 5 12 19 16 13 3 27 12 30 21 3 8 10 11 16 8 5 -3
10 -2 10 3 0 13 70 43 82 36 7 -5 8 -2 3 6 -6 10 -4 12 9 7 11 -5 15 -3 10 5
-5 8 -2 9 10 5 11 -5 15 -3 10 5 -5 8 -2 9 10 5 10 -4 15 -3 11 3 -3 5 7 16
22 22 15 7 34 19 42 26 7 7 20 11 27 8 7 -3 16 0 20 6 4 7 3 8 -4 4 -7 -4 -12
-4 -12 -1 0 10 70 36 80 30 5 -3 12 0 16 6 5 8 3 9 -6 4 -9 -6 -11 -4 -6 4 5
7 15 10 23 7 8 -3 12 -2 10 2 -3 4 1 13 9 20 8 7 14 10 14 7 0 -3 10 1 23 10
13 8 27 12 32 8 4 -5 4 -2 0 6 -6 11 -4 13 9 8 11 -5 15 -3 10 5 -5 8 -2 9 10
5 9 -4 15 -3 12 1 -7 12 63 44 76 36 6 -4 9 -3 6 2 -3 5 0 15 8 22 8 7 14 10
14 5 0 -4 6 1 13 11 7 10 25 19 39 19 14 1 24 6 20 11 -3 5 2 6 12 3 10 -4 15
-3 11 3 -6 9 8 14 28 11 5 -1 6 3 3 8 -4 5 10 15 29 21 19 6 35 16 35 21 0 13
87 52 99 44 5 -3 13 0 17 6 5 8 2 10 -7 5 -8 -4 -5 0 6 8 11 9 25 14 33 11 7
-2 11 -1 8 4 -3 4 7 14 22 22 15 8 33 20 41 27 7 7 20 11 28 8 8 -3 12 -2 9 3
-8 12 40 35 55 26 8 -6 10 -4 4 5 -6 10 -4 12 9 7 11 -5 15 -3 10 5 -5 8 -2 9
9 5 9 -3 19 -1 23 5 4 7 3 8 -4 4 -7 -4 -12 -5 -12 -3 0 10 91 58 99 52 5 -3
13 0 17 6 5 8 3 9 -6 4 -9 -6 -11 -4 -6 4 5 7 15 10 23 7 8 -3 11 -2 8 3 -6
11 31 25 44 16 5 -3 13 0 17 6 5 8 3 9 -6 4 -9 -6 -11 -4 -6 4 5 7 15 10 23 7
8 -3 12 -2 10 2 -3 4 1 13 9 20 8 7 14 9 14 5 0 -4 4 -3 8 2 13 18 53 36 64
29 7 -5 8 -2 3 6 -6 10 -4 12 9 7 11 -5 15 -3 10 5 -5 8 -2 9 10 5 9 -4 15 -3
11 2 -3 5 13 17 35 27 22 10 40 22 40 27 0 4 5 5 10 2 6 -3 10 -1 10 5 0 15
68 43 82 34 7 -5 8 -2 3 6 -6 10 -4 12 8 7 9 -3 19 -1 23 5 5 7 2 8 -6 3 -8
-5 -11 -4 -7 2 4 6 21 16 39 24 18 7 37 19 41 26 5 7 12 11 18 8 5 -4 9 -2 9
3 0 13 70 43 82 36 7 -5 8 -2 3 6 -6 10 -4 12 9 7 11 -5 15 -3 10 5 -5 8 -2 9
10 5 9 -4 15 -3 12 2 -3 4 7 14 22 22 15 8 30 18 34 24 4 5 8 6 8 2 0 -5 7 -1
16 8 9 9 23 14 30 11 7 -3 16 0 20 6 5 7 2 8 -7 4 -8 -4 -5 0 6 9 11 9 28 14
38 11 10 -2 14 0 10 7 -4 6 0 8 10 4 9 -3 19 -1 23 5 5 7 2 8 -7 3 -9 -5 -11
-5 -4 2 22 21 103 62 110 55 5 -4 4 -1 0 7 -6 11 -4 13 9 8 11 -5 15 -3 10 5
-5 8 -2 9 10 5 10 -4 15 -3 11 3 -3 6 1 10 10 10 9 0 13 5 10 10 -3 6 -1 10 4
10 6 0 11 22 11 51 0 35 3 48 12 43 7 -5 8 -3 4 5 -9 14 3 193 13 187 3 -2 4
21 3 51 -3 35 0 53 6 49 6 -4 8 2 5 14 -8 28 39 464 50 471 5 4 8 27 6 53 -2
25 -1 46 3 46 5 0 8 23 8 51 0 35 3 48 12 43 7 -5 8 -3 3 5 -8 14 25 382 34
377 3 -2 4 21 3 51 -2 31 0 53 5 50 4 -3 6 20 5 50 -2 31 0 53 5 50 4 -3 9 38
11 91 1 55 7 99 13 103 7 4 10 26 8 53 -2 25 -1 46 3 46 5 0 8 12 8 28 -1 50
34 351 39 347 3 -2 4 22 3 52 -2 31 0 53 5 50 4 -3 6 20 5 50 -2 31 0 53 5 50
4 -3 6 20 5 50 -2 31 0 53 5 50 4 -3 9 36 11 86 1 49 7 96 13 103 6 8 9 32 7
54 -2 22 -1 40 3 40 4 0 10 45 14 100 4 55 10 98 14 96 3 -2 4 19 2 46 -2 28
1 48 5 45 5 -3 7 20 6 50 -2 31 0 53 5 50 4 -3 6 20 5 50 -3 38 -1 53 7 49 7
-5 8 -1 5 9 -9 23 28 375 39 375 4 0 7 29 6 65 -1 36 1 68 4 72 4 3 7 19 7 35
0 17 4 27 10 23 6 -3 7 1 4 10 -7 18 47 575 56 570 3 -1 6 40 7 93 2 53 7 98
12 101 5 3 8 27 7 54 0 26 2 47 5 47 3 0 9 33 12 73 14 168 42 405 47 402 3
-2 3 22 2 52 -2 31 0 53 5 50 4 -3 6 20 5 50 -2 31 0 53 5 50 4 -3 9 38 10 91
2 56 7 99 14 102 6 4 9 26 8 48 -2 23 0 44 4 48 14 15 6 34 -14 34 -11 0 -18
4 -15 9 4 5 -4 7 -16 3 -16 -4 -19 -2 -13 8 5 9 4 11 -3 6 -14 -8 -93 14 -87
25 3 4 -5 5 -17 1 -11 -3 -19 -1 -16 4 3 5 -10 10 -30 11 -19 1 -38 7 -42 14
-4 6 -13 8 -19 5 -6 -4 -11 -2 -11 3 0 6 -20 16 -45 22 -25 6 -43 15 -40 19 3
5 -5 6 -17 2 -16 -4 -19 -2 -13 8 5 9 4 11 -4 6 -15 -10 -73 3 -66 15 4 5 -2
6 -11 2 -12 -4 -15 -3 -10 5 5 8 2 10 -8 6 -8 -3 -29 1 -47 10 -17 9 -35 13
-40 10 -5 -3 -9 0 -9 5 0 6 -7 11 -16 11 -9 0 -12 5 -8 12 5 7 3 8 -6 3 -14
-9 -92 14 -85 26 3 4 -5 5 -17 1 -16 -4 -19 -2 -13 8 5 9 4 11 -4 6 -15 -9
-73 3 -66 14 3 4 -3 6 -13 3 -11 -2 -26 2 -34 10 -8 8 -29 18 -46 22 -18 3
-30 10 -27 15 3 4 -5 6 -17 2 -16 -4 -19 -2 -13 8 5 9 4 11 -4 6 -15 -10 -73
3 -66 15 4 5 -2 6 -11 2 -11 -4 -15 -3 -11 4 5 7 -1 9 -15 5 -11 -3 -19 -1
-16 4 4 5 -8 9 -25 10 -18 0 -52 10 -77 21 -25 11 -55 24 -68 28 -12 3 -20 10
-17 15 3 4 -5 6 -17 2 -16 -4 -19 -2 -13 8 5 9 4 11 -4 6 -15 -9 -73 3 -66 14
3 4 -5 6 -17 2 -16 -4 -19 -2 -13 8 5 9 4 11 -3 6 -14 -9 -92 14 -92 27 0 5
-7 7 -15 3 -8 -3 -15 -2 -15 3 0 5 -16 12 -35 15 -20 4 -33 11 -30 16 3 4 -5
6 -17 2 -14 -3 -19 -1 -14 6 5 8 1 10 -10 5 -13 -5 -15 -3 -9 7 5 9 4 11 -4 6
-15 -9 -73 3 -66 14 3 4 -5 6 -17 2 -11 -3 -19 -1 -16 4 4 5 -10 9 -30 10 -20
0 -38 6 -40 12 -2 7 -8 10 -13 6 -5 -3 -9 -1 -9 4 0 6 -22 15 -50 22 -27 7
-48 16 -45 20 3 5 -5 6 -17 2 -16 -4 -19 -2 -13 8 5 9 4 11 -4 6 -16 -10 -64
2 -56 13 3 5 -5 7 -17 3 -11 -3 -19 -1 -16 4 3 5 -10 10 -30 11 -19 1 -38 7
-42 14 -4 6 -13 8 -19 5 -6 -4 -11 -3 -11 2 0 6 -20 16 -44 23 -25 7 -43 16
-40 20 2 4 -6 5 -18 1 -13 -3 -19 -1 -15 5 5 7 -1 9 -15 5 -16 -4 -19 -2 -13
8 5 9 4 11 -4 6 -17 -11 -73 3 -65 16 4 7 2 8 -5 4 -6 -4 -25 0 -42 8 -17 9
-35 13 -40 10 -5 -3 -9 0 -9 5 0 6 -7 11 -16 11 -9 0 -12 5 -8 12 4 7 3 8 -5
4 -16 -10 -122 24 -114 37 3 6 1 7 -5 3 -15 -9 -103 14 -96 25 3 5 -1 6 -9 3
-8 -3 -32 4 -53 15 -21 12 -45 21 -52 21 -7 0 -10 5 -6 12 4 7 3 8 -4 4 -14
-8 -103 14 -97 24 3 5 -5 6 -17 2 -11 -3 -19 -1 -16 4 4 5 -6 10 -21 11 -15 1
-40 7 -56 14 -17 7 -33 12 -37 11 -5 -1 -8 2 -8 6 0 4 -20 14 -45 21 -26 8
-42 17 -38 24 3 6 1 7 -6 3 -15 -9 -73 3 -66 14 3 4 -5 6 -17 2 -13 -3 -19 -1
-15 5 5 7 -1 9 -15 5 -16 -4 -19 -2 -13 8 6 9 4 11 -5 5 -13 -8 -90 13 -90 26
0 4 -22 12 -50 19 -27 7 -48 16 -45 20 3 5 -5 6 -17 2 -16 -4 -19 -2 -13 8 5
8 4 11 -3 6 -14 -9 -63 4 -57 14 3 5 -5 6 -17 2 -16 -4 -19 -2 -13 8 5 8 4 11
-3 6 -14 -9 -102 13 -102 26 0 5 -4 6 -10 3 -5 -3 -10 -2 -10 3 0 6 -16 13
-35 16 -20 4 -33 11 -30 16 3 4 -5 6 -17 2 -16 -4 -19 -2 -13 8 5 8 4 11 -2 7
-15 -9 -74 3 -67 14 3 5 -3 6 -12 2 -11 -4 -15 -3 -11 4 5 7 -1 9 -15 5 -11
-3 -19 -1 -16 4 3 5 -10 10 -30 11 -19 1 -38 7 -42 14 -4 6 -13 8 -19 5 -6 -4
-11 -3 -11 2 0 5 -27 17 -60 26 -38 11 -58 21 -54 28 4 7 2 8 -5 4 -15 -9 -73
3 -66 14 3 4 -5 6 -17 2 -13 -3 -19 -1 -15 5 5 7 0 9 -12 6 -13 -3 -27 4 -42
21 -29 33 -98 38 -106 7z m-536 -1428 c145 -99 184 -125 268 -188 33 -25 71
-53 85 -62 14 -9 45 -35 70 -58 25 -22 95 -80 154 -130 60 -49 142 -121 183
-160 116 -108 409 -448 460 -533 15 -25 64 -98 198 -292 27 -41 81 -134 138
-240 22 -41 48 -87 58 -102 11 -14 19 -32 19 -40 0 -7 20 -55 45 -106 25 -51
45 -97 45 -103 0 -5 12 -37 26 -72 74 -179 139 -486 147 -697 6 -143 -31 -409
-68 -495 -7 -16 -15 -46 -17 -65 -4 -42 16 -50 67 -26 18 9 36 16 40 16 4 0
27 14 52 30 24 17 46 30 49 30 16 0 128 98 188 163 96 105 157 201 184 288 33
104 40 119 55 119 25 0 90 -72 167 -184 8 -12 31 -44 51 -72 20 -27 46 -67 57
-89 11 -22 31 -61 43 -86 13 -25 30 -61 38 -80 8 -19 25 -59 39 -89 35 -79 82
-275 100 -425 30 -242 15 -562 -33 -730 -13 -44 -27 -96 -30 -115 -11 -56
-105 -329 -138 -400 -201 -436 -356 -638 -752 -980 -70 -61 -264 -185 -372
-239 -217 -108 -401 -167 -673 -215 -122 -21 -185 -26 -355 -26 -165 -1 -420
29 -495 58 -14 5 -47 12 -75 16 -67 10 -246 66 -270 86 -5 4 -29 13 -52 19
-41 11 -248 108 -331 155 -139 80 -368 275 -467 400 -200 252 -347 568 -420
901 -9 44 -23 98 -30 120 -26 82 -55 360 -55 534 0 112 21 337 39 431 15 72
86 302 105 339 10 18 29 62 42 98 13 35 35 80 48 101 12 20 27 48 31 62 4 14
22 48 39 75 17 28 38 64 46 80 8 17 31 55 51 85 19 30 53 83 75 117 42 67 143
212 175 253 20 26 39 53 105 150 21 30 49 69 63 86 15 17 34 44 43 60 10 16
42 63 72 104 30 41 69 102 87 135 17 33 52 92 77 130 88 135 252 442 252 470
0 8 9 29 20 48 11 19 34 76 50 128 17 52 35 110 42 129 34 104 66 313 67 438
2 205 -28 400 -98 636 -24 81 -16 112 25 102 13 -4 81 -45 151 -93z"/>
<path d="M4890 4160 c-13 -8 -15 -111 -18 -805 -2 -548 1 -802 8 -816 10 -18
20 -19 208 -17 l196 3 13 25 c9 18 13 96 13 285 l0 260 203 0 c232 0 277 9
383 76 304 192 336 633 63 872 -60 53 -131 89 -215 111 -52 13 -127 16 -450
16 -228 0 -395 -4 -404 -10z m714 -364 c105 -44 139 -196 63 -283 -48 -55 -78
-63 -227 -63 l-130 0 0 180 0 180 130 0 c89 0 141 -4 164 -14z"/>
</g>
</svg>
